<mxfile host="app.diagrams.net" agent="Mozilla/5.0 (Macintosh; Intel Mac OS X 10_15_7) AppleWebKit/537.36 (KHTML, like Gecko) Chrome/141.0.0.0 Safari/537.36" version="28.2.7">
  <diagram name="Page-1" id="MShjVqua6dN76zL4H0p4">
    <mxGraphModel dx="6170" dy="3970" grid="1" gridSize="10" guides="1" tooltips="1" connect="1" arrows="1" fold="1" page="1" pageScale="1" pageWidth="850" pageHeight="1100" math="0" shadow="0">
      <root>
        <mxCell id="0" />
        <mxCell id="1" parent="0" />
        <mxCell id="Yt73LQbdyz496-idZjtG-361" value="PUBLICACIÓN EXTERNA" style="whiteSpace=wrap;strokeWidth=2;" vertex="1" parent="1">
          <mxGeometry x="124" y="1526" width="991" height="864" as="geometry" />
        </mxCell>
        <mxCell id="Yt73LQbdyz496-idZjtG-362" value="USO INTERNO (Dominios)" style="whiteSpace=wrap;strokeWidth=2;" vertex="1" parent="1">
          <mxGeometry x="20" y="779" width="1153" height="697" as="geometry" />
        </mxCell>
        <mxCell id="Yt73LQbdyz496-idZjtG-363" value="ORCHESTRATOR (Extracción)" style="whiteSpace=wrap;strokeWidth=2;" vertex="1" parent="1">
          <mxGeometry x="1193" y="779" width="330" height="392" as="geometry" />
        </mxCell>
        <mxCell id="Yt73LQbdyz496-idZjtG-364" value="ORCHESTRATOR QUEUE" style="whiteSpace=wrap;strokeWidth=2;" vertex="1" parent="1">
          <mxGeometry x="1193" y="577" width="330" height="152" as="geometry" />
        </mxCell>
        <mxCell id="Yt73LQbdyz496-idZjtG-365" value="SSIM PARSING" style="whiteSpace=wrap;strokeWidth=2;" vertex="1" parent="1">
          <mxGeometry x="1543" y="20" width="318" height="709" as="geometry" />
        </mxCell>
        <mxCell id="Yt73LQbdyz496-idZjtG-366" value="CKI PARSING" style="whiteSpace=wrap;strokeWidth=2;" vertex="1" parent="1">
          <mxGeometry x="1881" y="20" width="302" height="709" as="geometry" />
        </mxCell>
        <mxCell id="Yt73LQbdyz496-idZjtG-367" value="AENA PARSING" style="whiteSpace=wrap;strokeWidth=2;" vertex="1" parent="1">
          <mxGeometry x="2202" y="20" width="297" height="709" as="geometry" />
        </mxCell>
        <mxCell id="Yt73LQbdyz496-idZjtG-368" value="NIMBUS PARSING" style="whiteSpace=wrap;strokeWidth=2;" vertex="1" parent="1">
          <mxGeometry x="2519" y="20" width="309" height="709" as="geometry" />
        </mxCell>
        <mxCell id="Yt73LQbdyz496-idZjtG-369" value="TELEX PARSING" style="whiteSpace=wrap;strokeWidth=2;" vertex="1" parent="1">
          <mxGeometry x="2848" y="20" width="357" height="709" as="geometry" />
        </mxCell>
        <mxCell id="Yt73LQbdyz496-idZjtG-370" value="telex-in&#xa;Recibe SITA" style="whiteSpace=wrap;strokeWidth=2;" vertex="1" parent="1">
          <mxGeometry x="3007" y="45" width="142" height="78" as="geometry" />
        </mxCell>
        <mxCell id="Yt73LQbdyz496-idZjtG-371" value="telex-parser&#xa;-----------&#xa;Detecta tipo/subtipo (21+)&#xa;Parsea mensaje&#xa;Guarda en fh_telex_messages y fh_telex" style="whiteSpace=wrap;strokeWidth=2;" vertex="1" parent="1">
          <mxGeometry x="2883" y="329" width="260" height="198" as="geometry" />
        </mxCell>
        <mxCell id="Yt73LQbdyz496-idZjtG-372" value="fh_telex_messages&#xa;raw" style="shape=cylinder3;boundedLbl=1;backgroundOutline=1;size=10;strokeWidth=2;whiteSpace=wrap;" vertex="1" parent="1">
          <mxGeometry x="3003" y="174" width="150" height="104" as="geometry" />
        </mxCell>
        <mxCell id="Yt73LQbdyz496-idZjtG-373" value="fh_telex&#xa;parsed" style="shape=cylinder3;boundedLbl=1;backgroundOutline=1;size=10;strokeWidth=2;whiteSpace=wrap;" vertex="1" parent="1">
          <mxGeometry x="2986" y="607" width="75" height="91" as="geometry" />
        </mxCell>
        <mxCell id="Yt73LQbdyz496-idZjtG-374" value="nimbus-in&#xa;Recibe Nimbus" style="whiteSpace=wrap;strokeWidth=2;" vertex="1" parent="1">
          <mxGeometry x="2629" y="45" width="165" height="78" as="geometry" />
        </mxCell>
        <mxCell id="Yt73LQbdyz496-idZjtG-375" value="nimbus-parser&#xa;Parsea fuel data" style="whiteSpace=wrap;strokeWidth=2;" vertex="1" parent="1">
          <mxGeometry x="2562" y="389" width="176" height="78" as="geometry" />
        </mxCell>
        <mxCell id="Yt73LQbdyz496-idZjtG-376" value="fh_nimbus_messages&#xa;raw" style="shape=cylinder3;boundedLbl=1;backgroundOutline=1;size=10;strokeWidth=2;whiteSpace=wrap;" vertex="1" parent="1">
          <mxGeometry x="2629" y="173" width="164" height="106" as="geometry" />
        </mxCell>
        <mxCell id="Yt73LQbdyz496-idZjtG-377" value="fh_nimbus&#xa;parsed" style="shape=cylinder3;boundedLbl=1;backgroundOutline=1;size=10;strokeWidth=2;whiteSpace=wrap;" vertex="1" parent="1">
          <mxGeometry x="2615" y="605" width="89" height="94" as="geometry" />
        </mxCell>
        <mxCell id="Yt73LQbdyz496-idZjtG-378" value="aena-in&#xa;Recibe CDM" style="whiteSpace=wrap;strokeWidth=2;" vertex="1" parent="1">
          <mxGeometry x="2319" y="45" width="143" height="78" as="geometry" />
        </mxCell>
        <mxCell id="Yt73LQbdyz496-idZjtG-379" value="aena-parser&#xa;Parsea CDM data" style="whiteSpace=wrap;strokeWidth=2;" vertex="1" parent="1">
          <mxGeometry x="2239" y="389" width="179" height="78" as="geometry" />
        </mxCell>
        <mxCell id="Yt73LQbdyz496-idZjtG-380" value="fh_aena_messages&#xa;raw" style="shape=cylinder3;boundedLbl=1;backgroundOutline=1;size=10;strokeWidth=2;whiteSpace=wrap;" vertex="1" parent="1">
          <mxGeometry x="2317" y="174" width="147" height="104" as="geometry" />
        </mxCell>
        <mxCell id="Yt73LQbdyz496-idZjtG-381" value="fh_aena&#xa;parsed" style="shape=cylinder3;boundedLbl=1;backgroundOutline=1;size=10;strokeWidth=2;whiteSpace=wrap;" vertex="1" parent="1">
          <mxGeometry x="2302" y="607" width="72" height="90" as="geometry" />
        </mxCell>
        <mxCell id="Yt73LQbdyz496-idZjtG-382" value="cki-in&#xa;Recibe GAUD" style="whiteSpace=wrap;strokeWidth=2;" vertex="1" parent="1">
          <mxGeometry x="1994" y="45" width="153" height="78" as="geometry" />
        </mxCell>
        <mxCell id="Yt73LQbdyz496-idZjtG-383" value="cki-parser&#xa;Parsea GAUD data" style="whiteSpace=wrap;strokeWidth=2;" vertex="1" parent="1">
          <mxGeometry x="1917" y="389" width="189" height="78" as="geometry" />
        </mxCell>
        <mxCell id="Yt73LQbdyz496-idZjtG-384" value="fh_cki_messages&#xa;raw" style="shape=cylinder3;boundedLbl=1;backgroundOutline=1;size=10;strokeWidth=2;whiteSpace=wrap;" vertex="1" parent="1">
          <mxGeometry x="2004" y="175" width="134" height="102" as="geometry" />
        </mxCell>
        <mxCell id="Yt73LQbdyz496-idZjtG-385" value="fh_cki&#xa;parsed" style="shape=cylinder3;boundedLbl=1;backgroundOutline=1;size=10;strokeWidth=2;whiteSpace=wrap;" vertex="1" parent="1">
          <mxGeometry x="1990" y="609" width="63" height="88" as="geometry" />
        </mxCell>
        <mxCell id="Yt73LQbdyz496-idZjtG-386" value="ssim-in&#xa;Recibe SSIM" style="whiteSpace=wrap;strokeWidth=2;" vertex="1" parent="1">
          <mxGeometry x="1675" y="45" width="144" height="78" as="geometry" />
        </mxCell>
        <mxCell id="Yt73LQbdyz496-idZjtG-387" value="ssim-parser&#xa;Parsea schedule data" style="whiteSpace=wrap;strokeWidth=2;" vertex="1" parent="1">
          <mxGeometry x="1578" y="389" width="211" height="78" as="geometry" />
        </mxCell>
        <mxCell id="Yt73LQbdyz496-idZjtG-388" value="fh_ssim_messages&#xa;raw" style="shape=cylinder3;boundedLbl=1;backgroundOutline=1;size=10;strokeWidth=2;whiteSpace=wrap;" vertex="1" parent="1">
          <mxGeometry x="1675" y="174" width="144" height="103" as="geometry" />
        </mxCell>
        <mxCell id="Yt73LQbdyz496-idZjtG-389" value="fh_ssim&#xa;parsed" style="shape=cylinder3;boundedLbl=1;backgroundOutline=1;size=10;strokeWidth=2;whiteSpace=wrap;" vertex="1" parent="1">
          <mxGeometry x="1659" y="608" width="69" height="90" as="geometry" />
        </mxCell>
        <mxCell id="Yt73LQbdyz496-idZjtG-390" value="orchestrator_queue.fifo&#xa;Recibe de TODOS los parsers" style="whiteSpace=wrap;strokeWidth=2;" vertex="1" parent="1">
          <mxGeometry x="1228" y="602" width="260" height="102" as="geometry" />
        </mxCell>
        <mxCell id="Yt73LQbdyz496-idZjtG-391" value="Flight Orchestrator&#xa;-----------&#xa;Extrae del mensaje:&#xa;* FUID (de DB o nuevo ULID)&#xa;* operationDate&#xa;* flightDesignator&#xa;* operationalSuffix&#xa;* airlineDesignator&#xa;* departureAirport&#xa;* departureNumber&#xa;&#xa;Entrada específica por tipo" style="whiteSpace=wrap;strokeWidth=2;" vertex="1" parent="1">
          <mxGeometry x="1228" y="804" width="260" height="342" as="geometry" />
        </mxCell>
        <mxCell id="Yt73LQbdyz496-idZjtG-392" value="FUID (ULID)&#xa;-----------&#xa;01HQZ8X9Y1K2M3N4P5Q6R7S8T9&#xa;&#xa;* Único en todo el sistema&#xa;* Inmutable&#xa;* 26 caracteres&#xa;* Ordenable&#xa;* Extraído por Orchestrator" style="whiteSpace=wrap;strokeWidth=2;" vertex="1" parent="1">
          <mxGeometry x="55" y="852" width="294" height="246" as="geometry" />
        </mxCell>
        <mxCell id="Yt73LQbdyz496-idZjtG-393" value="6 Campos de Identificación&#xa;-----------&#xa;operationDate: 2025-01-14&#xa;flightDesignator: 347&#xa;operationalSuffix: (empty)&#xa;airlineDesignator: IB&#xa;departureAirport: MAD&#xa;departureNumber: 1&#xa;&#xa;* Se guardan en CADA tabla&#xa;* Permiten queries sin joins" style="whiteSpace=wrap;strokeWidth=2;" vertex="1" parent="1">
          <mxGeometry x="636" y="828" width="256" height="294" as="geometry" />
        </mxCell>
        <mxCell id="Yt73LQbdyz496-idZjtG-394" value="Flight Orchestrator&#xa;extrae y envía FUID + 6 campos" style="whiteSpace=wrap;strokeWidth=2;" vertex="1" parent="1">
          <mxGeometry x="500" y="1221" width="260" height="102" as="geometry" />
        </mxCell>
        <mxCell id="Yt73LQbdyz496-idZjtG-395" value="Resources Service&#xa;guarda FUID + 6 campos" style="whiteSpace=wrap;strokeWidth=2;" vertex="1" parent="1">
          <mxGeometry x="62" y="1373" width="231" height="78" as="geometry" />
        </mxCell>
        <mxCell id="Yt73LQbdyz496-idZjtG-396" value="Timeline Service&#xa;guarda FUID + 6 campos" style="whiteSpace=wrap;strokeWidth=2;" vertex="1" parent="1">
          <mxGeometry x="344" y="1373" width="231" height="78" as="geometry" />
        </mxCell>
        <mxCell id="Yt73LQbdyz496-idZjtG-397" value="Passengers Service&#xa;guarda FUID + 6 campos" style="whiteSpace=wrap;strokeWidth=2;" vertex="1" parent="1">
          <mxGeometry x="625" y="1373" width="231" height="78" as="geometry" />
        </mxCell>
        <mxCell id="Yt73LQbdyz496-idZjtG-398" value="Fuel Service&#xa;guarda FUID + 6 campos" style="whiteSpace=wrap;strokeWidth=2;" vertex="1" parent="1">
          <mxGeometry x="906" y="1373" width="231" height="78" as="geometry" />
        </mxCell>
        <mxCell id="Yt73LQbdyz496-idZjtG-399" value="Event Publisher&#xa;-----------&#xa;Los 6 campos YA VIENEN&#xa;en cada evento de dominio.&#xa;Solo necesita formatear." style="whiteSpace=wrap;strokeWidth=2;" vertex="1" parent="1">
          <mxGeometry x="634" y="1551" width="260" height="174" as="geometry" />
        </mxCell>
        <mxCell id="Yt73LQbdyz496-idZjtG-400" value="External ID (6 campos)&#xa;-----------&#xa;airlineDesignator: IB&#xa;flightDesignator: 347&#xa;operationalSuffix: (empty)&#xa;departureAirport: MAD&#xa;operationDate: 2025-01-14&#xa;departureNumber: 1&#xa;&#xa;* NO incluye FUID&#xa;* Estándar aeronáutico&#xa;* Compatible con externos" style="whiteSpace=wrap;strokeWidth=2;" vertex="1" parent="1">
          <mxGeometry x="638" y="1775" width="252" height="318" as="geometry" />
        </mxCell>
        <mxCell id="Yt73LQbdyz496-idZjtG-401" value="AWS EventBridge&#xa;-----------&#xa;flight-events-bus&#xa;&#xa;Consumidores se suscriben:&#xa;* Mobile Apps&#xa;* Web Dashboard&#xa;* Partner Systems" style="whiteSpace=wrap;strokeWidth=2;" vertex="1" parent="1">
          <mxGeometry x="636" y="2143" width="256" height="222" as="geometry" />
        </mxCell>
        <mxCell id="Yt73LQbdyz496-idZjtG-402" value="" style="curved=1;startArrow=none;endArrow=block;exitX=0.5;exitY=1;entryX=0;entryY=0.27;rounded=0;" edge="1" parent="1" source="Yt73LQbdyz496-idZjtG-392" target="Yt73LQbdyz496-idZjtG-394">
          <mxGeometry relative="1" as="geometry">
            <Array as="points">
              <mxPoint x="202" y="1196" />
            </Array>
          </mxGeometry>
        </mxCell>
        <mxCell id="Yt73LQbdyz496-idZjtG-403" value="" style="curved=1;startArrow=none;endArrow=block;exitX=0.5;exitY=1;entryX=0.85;entryY=0;rounded=0;" edge="1" parent="1" source="Yt73LQbdyz496-idZjtG-393" target="Yt73LQbdyz496-idZjtG-394">
          <mxGeometry relative="1" as="geometry">
            <Array as="points">
              <mxPoint x="764" y="1196" />
            </Array>
          </mxGeometry>
        </mxCell>
        <mxCell id="Yt73LQbdyz496-idZjtG-404" value="" style="curved=1;startArrow=none;endArrow=block;exitX=0;exitY=0.71;entryX=0.5;entryY=-0.01;rounded=0;" edge="1" parent="1" source="Yt73LQbdyz496-idZjtG-394" target="Yt73LQbdyz496-idZjtG-395">
          <mxGeometry relative="1" as="geometry">
            <Array as="points">
              <mxPoint x="178" y="1348" />
            </Array>
          </mxGeometry>
        </mxCell>
        <mxCell id="Yt73LQbdyz496-idZjtG-405" value="" style="curved=1;startArrow=none;endArrow=block;exitX=0.06;exitY=1;entryX=0.5;entryY=-0.01;rounded=0;" edge="1" parent="1" source="Yt73LQbdyz496-idZjtG-394" target="Yt73LQbdyz496-idZjtG-396">
          <mxGeometry relative="1" as="geometry">
            <Array as="points">
              <mxPoint x="459" y="1348" />
            </Array>
          </mxGeometry>
        </mxCell>
        <mxCell id="Yt73LQbdyz496-idZjtG-406" value="" style="curved=1;startArrow=none;endArrow=block;exitX=0.79;exitY=1;entryX=0.5;entryY=-0.01;rounded=0;" edge="1" parent="1" source="Yt73LQbdyz496-idZjtG-394" target="Yt73LQbdyz496-idZjtG-397">
          <mxGeometry relative="1" as="geometry">
            <Array as="points">
              <mxPoint x="741" y="1348" />
            </Array>
          </mxGeometry>
        </mxCell>
        <mxCell id="Yt73LQbdyz496-idZjtG-407" value="" style="curved=1;startArrow=none;endArrow=block;exitX=1;exitY=0.74;entryX=0.5;entryY=-0.01;rounded=0;" edge="1" parent="1" source="Yt73LQbdyz496-idZjtG-394" target="Yt73LQbdyz496-idZjtG-398">
          <mxGeometry relative="1" as="geometry">
            <Array as="points">
              <mxPoint x="1022" y="1348" />
            </Array>
          </mxGeometry>
        </mxCell>
        <mxCell id="Yt73LQbdyz496-idZjtG-408" value="" style="curved=1;startArrow=none;endArrow=block;exitX=0.5;exitY=1;entryX=0.5;entryY=0;rounded=0;" edge="1" parent="1" source="Yt73LQbdyz496-idZjtG-400" target="Yt73LQbdyz496-idZjtG-401">
          <mxGeometry relative="1" as="geometry">
            <Array as="points" />
          </mxGeometry>
        </mxCell>
        <mxCell id="Yt73LQbdyz496-idZjtG-409" value="" style="curved=1;startArrow=none;endArrow=block;exitX=0.33;exitY=1;entryX=0.33;entryY=0;rounded=0;" edge="1" parent="1" source="Yt73LQbdyz496-idZjtG-370" target="Yt73LQbdyz496-idZjtG-372">
          <mxGeometry relative="1" as="geometry">
            <Array as="points">
              <mxPoint x="3039" y="148" />
            </Array>
          </mxGeometry>
        </mxCell>
        <mxCell id="Yt73LQbdyz496-idZjtG-410" value="" style="curved=1;startArrow=none;endArrow=block;exitX=0.7;exitY=0;entryX=0.69;entryY=1;rounded=0;" edge="1" parent="1" source="Yt73LQbdyz496-idZjtG-372" target="Yt73LQbdyz496-idZjtG-370">
          <mxGeometry relative="1" as="geometry">
            <Array as="points">
              <mxPoint x="3123" y="148" />
            </Array>
          </mxGeometry>
        </mxCell>
        <mxCell id="Yt73LQbdyz496-idZjtG-411" value="" style="curved=1;startArrow=none;endArrow=block;exitX=0;exitY=0.92;entryX=0.28;entryY=0;rounded=0;" edge="1" parent="1" source="Yt73LQbdyz496-idZjtG-370" target="Yt73LQbdyz496-idZjtG-371">
          <mxGeometry relative="1" as="geometry">
            <Array as="points">
              <mxPoint x="2941" y="148" />
              <mxPoint x="2941" y="304" />
            </Array>
          </mxGeometry>
        </mxCell>
        <mxCell id="Yt73LQbdyz496-idZjtG-412" value="" style="curved=1;startArrow=none;endArrow=block;exitX=0.84;exitY=0;entryX=0.7;entryY=1;rounded=0;" edge="1" parent="1" source="Yt73LQbdyz496-idZjtG-371" target="Yt73LQbdyz496-idZjtG-372">
          <mxGeometry relative="1" as="geometry">
            <Array as="points">
              <mxPoint x="3123" y="304" />
            </Array>
          </mxGeometry>
        </mxCell>
        <mxCell id="Yt73LQbdyz496-idZjtG-413" value="" style="curved=1;startArrow=none;endArrow=block;exitX=0.46;exitY=1;entryX=0.67;entryY=0;rounded=0;" edge="1" parent="1" source="Yt73LQbdyz496-idZjtG-372" target="Yt73LQbdyz496-idZjtG-371">
          <mxGeometry relative="1" as="geometry">
            <Array as="points">
              <mxPoint x="3068" y="304" />
            </Array>
          </mxGeometry>
        </mxCell>
        <mxCell id="Yt73LQbdyz496-idZjtG-414" value="" style="curved=1;startArrow=none;endArrow=block;exitX=0.5;exitY=1;entryX=0.42;entryY=0;rounded=0;" edge="1" parent="1" source="Yt73LQbdyz496-idZjtG-371" target="Yt73LQbdyz496-idZjtG-373">
          <mxGeometry relative="1" as="geometry">
            <Array as="points">
              <mxPoint x="3013" y="577" />
            </Array>
          </mxGeometry>
        </mxCell>
        <mxCell id="Yt73LQbdyz496-idZjtG-415" value="" style="curved=1;startArrow=none;endArrow=block;exitX=0.99;exitY=0.19;entryX=0.84;entryY=1;rounded=0;" edge="1" parent="1" source="Yt73LQbdyz496-idZjtG-373" target="Yt73LQbdyz496-idZjtG-371">
          <mxGeometry relative="1" as="geometry">
            <Array as="points">
              <mxPoint x="3123" y="577" />
              <mxPoint x="3123" y="552" />
            </Array>
          </mxGeometry>
        </mxCell>
        <mxCell id="Yt73LQbdyz496-idZjtG-416" value="" style="curved=1;startArrow=none;endArrow=block;exitX=0.45;exitY=1;entryX=0.45;entryY=0;rounded=0;" edge="1" parent="1" source="Yt73LQbdyz496-idZjtG-374" target="Yt73LQbdyz496-idZjtG-376">
          <mxGeometry relative="1" as="geometry">
            <Array as="points">
              <mxPoint x="2698" y="148" />
            </Array>
          </mxGeometry>
        </mxCell>
        <mxCell id="Yt73LQbdyz496-idZjtG-417" value="" style="curved=1;startArrow=none;endArrow=block;exitX=0.7;exitY=0;entryX=0.68;entryY=1;rounded=0;" edge="1" parent="1" source="Yt73LQbdyz496-idZjtG-376" target="Yt73LQbdyz496-idZjtG-374">
          <mxGeometry relative="1" as="geometry">
            <Array as="points">
              <mxPoint x="2760" y="148" />
            </Array>
          </mxGeometry>
        </mxCell>
        <mxCell id="Yt73LQbdyz496-idZjtG-418" value="" style="curved=1;startArrow=none;endArrow=block;exitX=0.05;exitY=1;entryX=0.39;entryY=-0.01;rounded=0;" edge="1" parent="1" source="Yt73LQbdyz496-idZjtG-374" target="Yt73LQbdyz496-idZjtG-375">
          <mxGeometry relative="1" as="geometry">
            <Array as="points">
              <mxPoint x="2591" y="148" />
              <mxPoint x="2591" y="304" />
            </Array>
          </mxGeometry>
        </mxCell>
        <mxCell id="Yt73LQbdyz496-idZjtG-419" value="" style="curved=1;startArrow=none;endArrow=block;exitX=0.69;exitY=-0.01;entryX=0.7;entryY=1;rounded=0;" edge="1" parent="1" source="Yt73LQbdyz496-idZjtG-375" target="Yt73LQbdyz496-idZjtG-376">
          <mxGeometry relative="1" as="geometry">
            <Array as="points">
              <mxPoint x="2760" y="304" />
            </Array>
          </mxGeometry>
        </mxCell>
        <mxCell id="Yt73LQbdyz496-idZjtG-420" value="" style="curved=1;startArrow=none;endArrow=block;exitX=0.46;exitY=1;entryX=0.59;entryY=-0.01;rounded=0;" edge="1" parent="1" source="Yt73LQbdyz496-idZjtG-376" target="Yt73LQbdyz496-idZjtG-375">
          <mxGeometry relative="1" as="geometry">
            <Array as="points">
              <mxPoint x="2701" y="304" />
            </Array>
          </mxGeometry>
        </mxCell>
        <mxCell id="Yt73LQbdyz496-idZjtG-421" value="" style="curved=1;startArrow=none;endArrow=block;exitX=0.5;exitY=0.99;entryX=0.43;entryY=0;rounded=0;" edge="1" parent="1" source="Yt73LQbdyz496-idZjtG-375" target="Yt73LQbdyz496-idZjtG-377">
          <mxGeometry relative="1" as="geometry">
            <Array as="points">
              <mxPoint x="2650" y="577" />
            </Array>
          </mxGeometry>
        </mxCell>
        <mxCell id="Yt73LQbdyz496-idZjtG-422" value="" style="curved=1;startArrow=none;endArrow=block;exitX=1;exitY=0.17;entryX=0.71;entryY=0.99;rounded=0;" edge="1" parent="1" source="Yt73LQbdyz496-idZjtG-377" target="Yt73LQbdyz496-idZjtG-375">
          <mxGeometry relative="1" as="geometry">
            <Array as="points">
              <mxPoint x="2767" y="577" />
              <mxPoint x="2767" y="552" />
            </Array>
          </mxGeometry>
        </mxCell>
        <mxCell id="Yt73LQbdyz496-idZjtG-423" value="" style="curved=1;startArrow=none;endArrow=block;exitX=0.42;exitY=1;entryX=0.42;entryY=0;rounded=0;" edge="1" parent="1" source="Yt73LQbdyz496-idZjtG-378" target="Yt73LQbdyz496-idZjtG-380">
          <mxGeometry relative="1" as="geometry">
            <Array as="points">
              <mxPoint x="2372" y="148" />
            </Array>
          </mxGeometry>
        </mxCell>
        <mxCell id="Yt73LQbdyz496-idZjtG-424" value="" style="curved=1;startArrow=none;endArrow=block;exitX=0.7;exitY=0;entryX=0.69;entryY=1;rounded=0;" edge="1" parent="1" source="Yt73LQbdyz496-idZjtG-380" target="Yt73LQbdyz496-idZjtG-378">
          <mxGeometry relative="1" as="geometry">
            <Array as="points">
              <mxPoint x="2435" y="148" />
            </Array>
          </mxGeometry>
        </mxCell>
        <mxCell id="Yt73LQbdyz496-idZjtG-425" value="" style="curved=1;startArrow=none;endArrow=block;exitX=0.01;exitY=1;entryX=0.41;entryY=-0.01;rounded=0;" edge="1" parent="1" source="Yt73LQbdyz496-idZjtG-378" target="Yt73LQbdyz496-idZjtG-379">
          <mxGeometry relative="1" as="geometry">
            <Array as="points">
              <mxPoint x="2274" y="148" />
              <mxPoint x="2274" y="304" />
            </Array>
          </mxGeometry>
        </mxCell>
        <mxCell id="Yt73LQbdyz496-idZjtG-426" value="" style="curved=1;startArrow=none;endArrow=block;exitX=0.69;exitY=-0.01;entryX=0.7;entryY=1;rounded=0;" edge="1" parent="1" source="Yt73LQbdyz496-idZjtG-379" target="Yt73LQbdyz496-idZjtG-380">
          <mxGeometry relative="1" as="geometry">
            <Array as="points">
              <mxPoint x="2435" y="304" />
            </Array>
          </mxGeometry>
        </mxCell>
        <mxCell id="Yt73LQbdyz496-idZjtG-427" value="" style="curved=1;startArrow=none;endArrow=block;exitX=0.46;exitY=1;entryX=0.59;entryY=-0.01;rounded=0;" edge="1" parent="1" source="Yt73LQbdyz496-idZjtG-380" target="Yt73LQbdyz496-idZjtG-379">
          <mxGeometry relative="1" as="geometry">
            <Array as="points">
              <mxPoint x="2381" y="304" />
            </Array>
          </mxGeometry>
        </mxCell>
        <mxCell id="Yt73LQbdyz496-idZjtG-428" value="" style="curved=1;startArrow=none;endArrow=block;exitX=0.5;exitY=0.99;entryX=0.43;entryY=0;rounded=0;" edge="1" parent="1" source="Yt73LQbdyz496-idZjtG-379" target="Yt73LQbdyz496-idZjtG-381">
          <mxGeometry relative="1" as="geometry">
            <Array as="points">
              <mxPoint x="2329" y="577" />
            </Array>
          </mxGeometry>
        </mxCell>
        <mxCell id="Yt73LQbdyz496-idZjtG-429" value="" style="curved=1;startArrow=none;endArrow=block;exitX=1.01;exitY=0.2;entryX=0.69;entryY=0.99;rounded=0;" edge="1" parent="1" source="Yt73LQbdyz496-idZjtG-381" target="Yt73LQbdyz496-idZjtG-379">
          <mxGeometry relative="1" as="geometry">
            <Array as="points">
              <mxPoint x="2437" y="577" />
              <mxPoint x="2437" y="552" />
            </Array>
          </mxGeometry>
        </mxCell>
        <mxCell id="Yt73LQbdyz496-idZjtG-430" value="" style="curved=1;startArrow=none;endArrow=block;exitX=0.43;exitY=1;entryX=0.41;entryY=0;rounded=0;" edge="1" parent="1" source="Yt73LQbdyz496-idZjtG-382" target="Yt73LQbdyz496-idZjtG-384">
          <mxGeometry relative="1" as="geometry">
            <Array as="points">
              <mxPoint x="2052" y="148" />
            </Array>
          </mxGeometry>
        </mxCell>
        <mxCell id="Yt73LQbdyz496-idZjtG-431" value="" style="curved=1;startArrow=none;endArrow=block;exitX=0.72;exitY=0;entryX=0.68;entryY=1;rounded=0;" edge="1" parent="1" source="Yt73LQbdyz496-idZjtG-384" target="Yt73LQbdyz496-idZjtG-382">
          <mxGeometry relative="1" as="geometry">
            <Array as="points">
              <mxPoint x="2116" y="148" />
            </Array>
          </mxGeometry>
        </mxCell>
        <mxCell id="Yt73LQbdyz496-idZjtG-432" value="" style="curved=1;startArrow=none;endArrow=block;exitX=0.04;exitY=1;entryX=0.4;entryY=-0.01;rounded=0;" edge="1" parent="1" source="Yt73LQbdyz496-idZjtG-382" target="Yt73LQbdyz496-idZjtG-383">
          <mxGeometry relative="1" as="geometry">
            <Array as="points">
              <mxPoint x="1955" y="148" />
              <mxPoint x="1955" y="304" />
            </Array>
          </mxGeometry>
        </mxCell>
        <mxCell id="Yt73LQbdyz496-idZjtG-433" value="" style="curved=1;startArrow=none;endArrow=block;exitX=0.67;exitY=-0.01;entryX=0.72;entryY=1;rounded=0;" edge="1" parent="1" source="Yt73LQbdyz496-idZjtG-383" target="Yt73LQbdyz496-idZjtG-384">
          <mxGeometry relative="1" as="geometry">
            <Array as="points">
              <mxPoint x="2116" y="304" />
            </Array>
          </mxGeometry>
        </mxCell>
        <mxCell id="Yt73LQbdyz496-idZjtG-434" value="" style="curved=1;startArrow=none;endArrow=block;exitX=0.45;exitY=1;entryX=0.58;entryY=-0.01;rounded=0;" edge="1" parent="1" source="Yt73LQbdyz496-idZjtG-384" target="Yt73LQbdyz496-idZjtG-383">
          <mxGeometry relative="1" as="geometry">
            <Array as="points">
              <mxPoint x="2061" y="304" />
            </Array>
          </mxGeometry>
        </mxCell>
        <mxCell id="Yt73LQbdyz496-idZjtG-435" value="" style="curved=1;startArrow=none;endArrow=block;exitX=0.5;exitY=0.99;entryX=0.4;entryY=-0.01;rounded=0;" edge="1" parent="1" source="Yt73LQbdyz496-idZjtG-383" target="Yt73LQbdyz496-idZjtG-385">
          <mxGeometry relative="1" as="geometry">
            <Array as="points">
              <mxPoint x="2011" y="577" />
            </Array>
          </mxGeometry>
        </mxCell>
        <mxCell id="Yt73LQbdyz496-idZjtG-436" value="" style="curved=1;startArrow=none;endArrow=block;exitX=0.99;exitY=0.21;entryX=0.67;entryY=0.99;rounded=0;" edge="1" parent="1" source="Yt73LQbdyz496-idZjtG-385" target="Yt73LQbdyz496-idZjtG-383">
          <mxGeometry relative="1" as="geometry">
            <Array as="points">
              <mxPoint x="2117" y="577" />
              <mxPoint x="2117" y="552" />
            </Array>
          </mxGeometry>
        </mxCell>
        <mxCell id="Yt73LQbdyz496-idZjtG-437" value="" style="curved=1;startArrow=none;endArrow=block;exitX=0.38;exitY=1;entryX=0.37;entryY=0;rounded=0;" edge="1" parent="1" source="Yt73LQbdyz496-idZjtG-386" target="Yt73LQbdyz496-idZjtG-388">
          <mxGeometry relative="1" as="geometry">
            <Array as="points">
              <mxPoint x="1720" y="148" />
            </Array>
          </mxGeometry>
        </mxCell>
        <mxCell id="Yt73LQbdyz496-idZjtG-438" value="" style="curved=1;startArrow=none;endArrow=block;exitX=0.7;exitY=0;entryX=0.68;entryY=1;rounded=0;" edge="1" parent="1" source="Yt73LQbdyz496-idZjtG-388" target="Yt73LQbdyz496-idZjtG-386">
          <mxGeometry relative="1" as="geometry">
            <Array as="points">
              <mxPoint x="1790" y="148" />
            </Array>
          </mxGeometry>
        </mxCell>
        <mxCell id="Yt73LQbdyz496-idZjtG-439" value="" style="curved=1;startArrow=none;endArrow=block;exitX=0;exitY=0.98;entryX=0.41;entryY=-0.01;rounded=0;" edge="1" parent="1" source="Yt73LQbdyz496-idZjtG-386" target="Yt73LQbdyz496-idZjtG-387">
          <mxGeometry relative="1" as="geometry">
            <Array as="points">
              <mxPoint x="1623" y="148" />
              <mxPoint x="1623" y="304" />
            </Array>
          </mxGeometry>
        </mxCell>
        <mxCell id="Yt73LQbdyz496-idZjtG-440" value="" style="curved=1;startArrow=none;endArrow=block;exitX=0.66;exitY=-0.01;entryX=0.7;entryY=1;rounded=0;" edge="1" parent="1" source="Yt73LQbdyz496-idZjtG-387" target="Yt73LQbdyz496-idZjtG-388">
          <mxGeometry relative="1" as="geometry">
            <Array as="points">
              <mxPoint x="1790" y="304" />
            </Array>
          </mxGeometry>
        </mxCell>
        <mxCell id="Yt73LQbdyz496-idZjtG-441" value="" style="curved=1;startArrow=none;endArrow=block;exitX=0.45;exitY=1;entryX=0.58;entryY=-0.01;rounded=0;" edge="1" parent="1" source="Yt73LQbdyz496-idZjtG-388" target="Yt73LQbdyz496-idZjtG-387">
          <mxGeometry relative="1" as="geometry">
            <Array as="points">
              <mxPoint x="1737" y="304" />
            </Array>
          </mxGeometry>
        </mxCell>
        <mxCell id="Yt73LQbdyz496-idZjtG-442" value="" style="curved=1;startArrow=none;endArrow=block;exitX=0.5;exitY=0.99;entryX=0.41;entryY=0;rounded=0;" edge="1" parent="1" source="Yt73LQbdyz496-idZjtG-387" target="Yt73LQbdyz496-idZjtG-389">
          <mxGeometry relative="1" as="geometry">
            <Array as="points">
              <mxPoint x="1683" y="577" />
            </Array>
          </mxGeometry>
        </mxCell>
        <mxCell id="Yt73LQbdyz496-idZjtG-443" value="" style="curved=1;startArrow=none;endArrow=block;exitX=1;exitY=0.19;entryX=0.66;entryY=0.99;rounded=0;" edge="1" parent="1" source="Yt73LQbdyz496-idZjtG-389" target="Yt73LQbdyz496-idZjtG-387">
          <mxGeometry relative="1" as="geometry">
            <Array as="points">
              <mxPoint x="1790" y="577" />
              <mxPoint x="1790" y="552" />
            </Array>
          </mxGeometry>
        </mxCell>
        <mxCell id="Yt73LQbdyz496-idZjtG-444" value="" style="curved=1;startArrow=none;endArrow=block;exitX=0.25;exitY=1;entryX=1;entryY=0.43;rounded=0;" edge="1" parent="1" source="Yt73LQbdyz496-idZjtG-371" target="Yt73LQbdyz496-idZjtG-390">
          <mxGeometry relative="1" as="geometry">
            <Array as="points">
              <mxPoint x="2931" y="552" />
              <mxPoint x="2931" y="577" />
            </Array>
          </mxGeometry>
        </mxCell>
        <mxCell id="Yt73LQbdyz496-idZjtG-445" value="" style="curved=1;startArrow=none;endArrow=block;exitX=0.38;exitY=0.99;entryX=1;entryY=0.42;rounded=0;" edge="1" parent="1" source="Yt73LQbdyz496-idZjtG-375" target="Yt73LQbdyz496-idZjtG-390">
          <mxGeometry relative="1" as="geometry">
            <Array as="points">
              <mxPoint x="2581" y="552" />
              <mxPoint x="2581" y="577" />
            </Array>
          </mxGeometry>
        </mxCell>
        <mxCell id="Yt73LQbdyz496-idZjtG-446" value="" style="curved=1;startArrow=none;endArrow=block;exitX=0.39;exitY=0.99;entryX=1;entryY=0.39;rounded=0;" edge="1" parent="1" source="Yt73LQbdyz496-idZjtG-379" target="Yt73LQbdyz496-idZjtG-390">
          <mxGeometry relative="1" as="geometry">
            <Array as="points">
              <mxPoint x="2264" y="552" />
              <mxPoint x="2264" y="577" />
            </Array>
          </mxGeometry>
        </mxCell>
        <mxCell id="Yt73LQbdyz496-idZjtG-447" value="" style="curved=1;startArrow=none;endArrow=block;exitX=0.39;exitY=0.99;entryX=1;entryY=0.33;rounded=0;" edge="1" parent="1" source="Yt73LQbdyz496-idZjtG-383" target="Yt73LQbdyz496-idZjtG-390">
          <mxGeometry relative="1" as="geometry">
            <Array as="points">
              <mxPoint x="1945" y="552" />
              <mxPoint x="1945" y="577" />
            </Array>
          </mxGeometry>
        </mxCell>
        <mxCell id="Yt73LQbdyz496-idZjtG-448" value="" style="curved=1;startArrow=none;endArrow=block;exitX=0.39;exitY=0.99;entryX=1;entryY=0.12;rounded=0;" edge="1" parent="1" source="Yt73LQbdyz496-idZjtG-387" target="Yt73LQbdyz496-idZjtG-390">
          <mxGeometry relative="1" as="geometry">
            <Array as="points">
              <mxPoint x="1613" y="552" />
              <mxPoint x="1613" y="577" />
            </Array>
          </mxGeometry>
        </mxCell>
        <mxCell id="Yt73LQbdyz496-idZjtG-449" value="" style="curved=1;startArrow=none;endArrow=block;exitX=0.5;exitY=1;entryX=0.5;entryY=0;rounded=0;" edge="1" parent="1" source="Yt73LQbdyz496-idZjtG-390" target="Yt73LQbdyz496-idZjtG-391">
          <mxGeometry relative="1" as="geometry">
            <Array as="points" />
          </mxGeometry>
        </mxCell>
        <mxCell id="Yt73LQbdyz496-idZjtG-450" value="" style="curved=1;startArrow=none;endArrow=block;exitX=0.5;exitY=1;entryX=1;entryY=0.28;rounded=0;" edge="1" parent="1" source="Yt73LQbdyz496-idZjtG-391" target="Yt73LQbdyz496-idZjtG-394">
          <mxGeometry relative="1" as="geometry">
            <Array as="points">
              <mxPoint x="1358" y="1171" />
              <mxPoint x="1090" y="1196" />
            </Array>
          </mxGeometry>
        </mxCell>
        <mxCell id="Yt73LQbdyz496-idZjtG-451" value="" style="curved=1;startArrow=none;endArrow=block;exitX=0.5;exitY=0.99;entryX=0;entryY=0.35;rounded=0;" edge="1" parent="1" source="Yt73LQbdyz496-idZjtG-395" target="Yt73LQbdyz496-idZjtG-399">
          <mxGeometry relative="1" as="geometry">
            <Array as="points">
              <mxPoint x="178" y="1526" />
            </Array>
          </mxGeometry>
        </mxCell>
        <mxCell id="Yt73LQbdyz496-idZjtG-452" value="" style="curved=1;startArrow=none;endArrow=block;exitX=0.5;exitY=0.99;entryX=0;entryY=0.22;rounded=0;" edge="1" parent="1" source="Yt73LQbdyz496-idZjtG-396" target="Yt73LQbdyz496-idZjtG-399">
          <mxGeometry relative="1" as="geometry">
            <Array as="points">
              <mxPoint x="459" y="1526" />
            </Array>
          </mxGeometry>
        </mxCell>
        <mxCell id="Yt73LQbdyz496-idZjtG-453" value="" style="curved=1;startArrow=none;endArrow=block;exitX=0.5;exitY=0.99;entryX=0.43;entryY=0;rounded=0;" edge="1" parent="1" source="Yt73LQbdyz496-idZjtG-397" target="Yt73LQbdyz496-idZjtG-399">
          <mxGeometry relative="1" as="geometry">
            <Array as="points">
              <mxPoint x="741" y="1526" />
            </Array>
          </mxGeometry>
        </mxCell>
        <mxCell id="Yt73LQbdyz496-idZjtG-454" value="" style="curved=1;startArrow=none;endArrow=block;exitX=0.5;exitY=0.99;entryX=1;entryY=0.17;rounded=0;" edge="1" parent="1" source="Yt73LQbdyz496-idZjtG-398" target="Yt73LQbdyz496-idZjtG-399">
          <mxGeometry relative="1" as="geometry">
            <Array as="points">
              <mxPoint x="1022" y="1526" />
            </Array>
          </mxGeometry>
        </mxCell>
        <mxCell id="Yt73LQbdyz496-idZjtG-455" value="" style="curved=1;startArrow=none;endArrow=block;exitX=0.5;exitY=1;entryX=0.5;entryY=0;rounded=0;" edge="1" parent="1" source="Yt73LQbdyz496-idZjtG-399" target="Yt73LQbdyz496-idZjtG-400">
          <mxGeometry relative="1" as="geometry">
            <Array as="points" />
          </mxGeometry>
        </mxCell>
      </root>
    </mxGraphModel>
  </diagram>
</mxfile>
